# xmcd CD database file
#
# Track frame offsets:
#	150
#	23608
#	44019
#	63427
#	93425
#	118897
#	140220
#	165957
#	187304
#	211019
#	236085
#	260843
#	293489
#
# Disc length: 4208 seconds
#
# Revision: 0
# Processed by: cddbd v1.5.2PL0 Copyright (c) Steve Scherf et al.
# Submitted via: CDex 1.50
#
DISCID=c4106e0d
DTITLE=Various Artist - Cafe Del Mar Vol 12 CD 2
DYEAR=2005
DGENRE=New Age
TTITLE0=BLANK and JONES ft. MIKE FRANCIS - SOMEONE LIKE YOU
TTITLE1=VIGGO - ESO ES
TTITLE2=LUMINOUS - MAKE IT HAPPEN
TTITLE3=PACO FERNANDEZ - JUNTO AL MAR
TTITLE4=LA CAINA - LE VENT M'A DIT
TTITLE5=MAHARA MC KAY - ONE LIFE
TTITLE6=RAFA GAS and F3R DELGADO ft. LUCIA MONTOYA - AMANECER EN BOLONIA
TTITLE7=FRICTION - LOOKING DOWN
TTITLE8=PEP LLADO - TWO RIVERS, ONE WORLD
TTITLE9=YANN KUHLMANN - LA MAURITIA
TTITLE10=NERA and FELIX - CON AMOR
TTITLE11=KORU - OTIS
TTITLE12=LIGHT OF AIDAN - LAMENT
EXTD=YEAR: 2005
EXTT0=
EXTT1=
EXTT2=
EXTT3=
EXTT4=
EXTT5=
EXTT6=
EXTT7=
EXTT8=
EXTT9=
EXTT10=
EXTT11=
EXTT12=
PLAYORDER=
